<svg width="25" height="22" viewBox="0 0 25 22" fill="none" xmlns="http://www.w3.org/2000/svg">
<path d="M24.5 7.72316C24.5 15.3812 13.3796 21.5799 12.9061 21.8359C12.7813 21.9044 12.6417 21.9403 12.5 21.9403C12.3583 21.9403 12.2187 21.9044 12.0939 21.8359C11.735 21.6389 5.285 18.0407 2.16393 12.9864C2.12367 12.9202 2.10145 12.8442 2.09958 12.7663C2.09771 12.6884 2.11624 12.6114 2.15327 12.5433C2.1903 12.4751 2.24447 12.4183 2.3102 12.3787C2.37593 12.3391 2.45082 12.3182 2.52714 12.318H6.5C6.64115 12.3181 6.78014 12.2826 6.90462 12.2146C7.02911 12.1467 7.13523 12.0484 7.21357 11.9285L8.21429 10.3969L10.9293 14.5541C11.0333 14.7135 11.1856 14.8335 11.3629 14.896C11.5402 14.9584 11.7326 14.9598 11.9107 14.8998C12.0996 14.8345 12.2613 14.7057 12.3693 14.5344L13.8157 12.318H15.9286C16.0461 12.3183 16.1624 12.2938 16.2703 12.2463C16.3781 12.1987 16.4753 12.129 16.5557 12.0415C16.636 11.954 16.6979 11.8505 16.7375 11.7376C16.7771 11.6246 16.7935 11.5045 16.7857 11.3848C16.7665 11.1598 16.6648 10.9506 16.5008 10.799C16.3369 10.6475 16.1229 10.5648 15.9018 10.5676H13.3571C13.216 10.5675 13.077 10.603 12.9525 10.6709C12.828 10.7389 12.7219 10.8372 12.6436 10.957L11.6429 12.4887L8.92786 8.33143C8.82377 8.17189 8.67127 8.05166 8.49377 7.9892C8.31627 7.92675 8.1236 7.92552 7.94536 7.98572C7.7569 8.05142 7.59569 8.18017 7.48786 8.35112L6.04143 10.5676H1.30679C1.21519 10.5678 1.12593 10.5381 1.05208 10.4828C0.978226 10.4275 0.923678 10.3495 0.896429 10.2602C0.638027 9.44016 0.504329 8.58455 0.5 7.72316C0.501985 5.92486 1.20249 4.20079 2.44784 2.9292C3.69319 1.65761 5.38167 0.942335 7.14286 0.940308C9.35536 0.940308 11.2925 1.91179 12.5 3.55389C13.7075 1.91179 15.6446 0.940308 17.8571 0.940308C19.6183 0.942335 21.3068 1.65761 22.5522 2.9292C23.7975 4.20079 24.498 5.92486 24.5 7.72316Z" fill="white"/>
</svg>
