<svg xmlns="http://www.w3.org/2000/svg" width="32" height="25" fill="none" viewBox="0 0 32 25">
  <g filter="url(#a)">
    <path fill="#fff" d="M5.333 16.44c-.377 0-.694-.128-.949-.384A1.296 1.296 0 0 1 4 15.107c0-.377.127-.693.384-.95.257-.255.573-.383.95-.383h21.333c.377 0 .694.128.95.384s.384.572.383.949a1.3 1.3 0 0 1-.384.95 1.275 1.275 0 0 1-.95.383H5.334Zm0-6.666c-.377 0-.694-.128-.949-.384A1.296 1.296 0 0 1 4 8.44c0-.377.127-.693.384-.949s.573-.384.95-.384h21.333c.377 0 .694.128.95.384s.384.572.383.95c0 .376-.129.693-.384.95a1.275 1.275 0 0 1-.95.383H5.334Zm0-6.667c-.377 0-.694-.128-.949-.384A1.296 1.296 0 0 1 4 1.773c0-.376.127-.693.384-.949s.573-.384.95-.384h21.333c.377 0 .694.128.95.384s.384.573.383.95c0 .377-.129.693-.384.95a1.275 1.275 0 0 1-.95.383H5.334Z"/>
  </g>
  <defs>
    <filter id="a" width="32" height="24" x="0" y=".44" color-interpolation-filters="sRGB" filterUnits="userSpaceOnUse">
      <feFlood flood-opacity="0" result="BackgroundImageFix"/>
      <feColorMatrix in="SourceAlpha" result="hardAlpha" values="0 0 0 0 0 0 0 0 0 0 0 0 0 0 0 0 0 0 127 0"/>
      <feOffset dy="4"/>
      <feGaussianBlur stdDeviation="2"/>
      <feComposite in2="hardAlpha" operator="out"/>
      <feColorMatrix values="0 0 0 0 0 0 0 0 0 0 0 0 0 0 0 0 0 0 0.25 0"/>
      <feBlend in2="BackgroundImageFix" result="effect1_dropShadow_21_600"/>
      <feBlend in="SourceGraphic" in2="effect1_dropShadow_21_600" result="shape"/>
    </filter>
  </defs>
</svg>
